<svg width="71" height="70" viewBox="0 0 71 70" fill="none" xmlns="http://www.w3.org/2000/svg">
<rect x="0.504211" y="0.5" width="69" height="69" rx="19.5" stroke="#E4E4E4"/>
<path d="M47.9719 24.2471C46.3321 22.4989 44.1436 21.5371 41.8109 21.5371C39.4875 21.5371 37.3144 22.4934 35.6911 24.2305L35.058 24.9099L34.4249 24.2316C32.7964 22.489 30.6181 21.5294 28.2886 21.5294C25.9611 21.5294 23.7787 22.4879 22.1419 24.2316C18.7593 27.8548 18.7572 33.7677 22.1419 37.4118L34.3302 50.4529C34.5309 50.6669 34.7944 50.775 35.058 50.775C35.3215 50.775 35.584 50.6669 35.7858 50.4529L47.976 37.4085C51.3535 33.7721 51.3525 27.868 47.9719 24.2471ZM45.7865 35.0735C45.5847 35.2897 45.3212 35.3989 45.0566 35.3989C44.7941 35.3989 44.5316 35.2919 44.3299 35.0779C43.9274 34.6478 43.9253 33.9507 44.3268 33.5184C45.6836 32.057 45.6877 29.5974 44.335 28.1482C43.9325 27.7169 43.9325 27.0199 44.335 26.5886C44.7375 26.1574 45.3881 26.1574 45.7906 26.5886C47.9308 28.8816 47.9287 32.7684 45.7865 35.0735Z" fill="#FF055F"/>
</svg>
