<svg width="113" height="113" viewBox="0 0 113 113" fill="none" xmlns="http://www.w3.org/2000/svg">
<circle cx="56.5" cy="56.5" r="56.5" fill="white" fill-opacity="0.12"/>
<path d="M50.4952 74.8761L70.8309 63.1904C73.4414 61.6902 75 59.0021 75 56.0001C75 52.9982 73.4414 50.3101 70.8309 48.8099L50.4952 37.1242C47.8825 35.6224 44.7647 35.6254 42.1542 37.1323C39.5533 38.6341 38 41.3191 38 44.3144V67.6859C38 70.6811 39.5533 73.3662 42.1542 74.8679C43.4616 75.6229 44.8965 76 46.3322 76C47.7618 76 49.1915 75.6259 50.4952 74.8761Z" fill="white"/>
<path d="M50.4952 74.8761L70.8309 63.1904C73.4414 61.6902 75 59.0021 75 56.0001C75 52.9982 73.4414 50.3101 70.8309 48.8099L50.4952 37.1242C47.8825 35.6224 44.7647 35.6254 42.1542 37.1323C39.5533 38.6341 38 41.3191 38 44.3144V67.6859C38 70.6811 39.5533 73.3662 42.1542 74.8679C43.4616 75.6229 44.8965 76 46.3322 76C47.7618 76 49.1915 75.6259 50.4952 74.8761Z" stroke="white"/>
</svg>
