<svg width="86" height="36" viewBox="0 0 86 36" fill="none" xmlns="http://www.w3.org/2000/svg">
<rect width="86" height="36" rx="18" fill="#FFB800" fill-opacity="0.18"/>
<rect width="37" height="36" rx="18" fill="#FFB800"/>
<path d="M19.1183 10.4668L21.0564 14.394C21.1785 14.6402 21.4128 14.8116 21.6866 14.8509L26.0196 15.4812C26.705 15.5816 26.9787 16.4246 26.4824 16.9071L23.3469 19.9638C23.15 20.1569 23.0594 20.4326 23.1066 20.7044L23.8472 25.0196C23.9634 25.703 23.2465 26.223 22.634 25.902L18.7579 23.8635C18.5137 23.7355 18.2222 23.7355 17.98 23.8635L14.102 25.902C13.4875 26.225 12.7706 25.703 12.8887 25.0196L13.6293 20.7044C13.6765 20.4326 13.5859 20.1569 13.389 19.9638L10.2535 16.9071C9.75718 16.4226 10.0309 15.5797 10.7163 15.4812L15.0493 14.8509C15.3211 14.8116 15.5574 14.6402 15.6796 14.394L17.6176 10.4668C17.9248 9.84441 18.8111 9.84441 19.1183 10.4668Z" fill="#080808"/>
</svg>
