<svg width="24" height="24" viewBox="0 0 24 24" fill="none" xmlns="http://www.w3.org/2000/svg">
<path d="M21.4087 3.90513C20.214 2.71638 18.6195 2.06238 16.92 2.06238C15.2272 2.06238 13.644 2.71263 12.4612 3.89388L12 4.35588L11.5387 3.89463C10.3522 2.70963 8.76525 2.05713 7.068 2.05713C5.37225 2.05713 3.78225 2.70888 2.58975 3.89463C0.125252 6.35838 0.123752 10.3791 2.58975 12.8571L11.4697 21.7251C11.616 21.8706 11.808 21.9441 12 21.9441C12.192 21.9441 12.3832 21.8706 12.5302 21.7251L21.4117 12.8549C23.8725 10.3821 23.8717 6.36738 21.4087 3.90513ZM19.8165 11.2671C19.6695 11.4141 19.4775 11.4884 19.2847 11.4884C19.0935 11.4884 18.9022 11.4156 18.7552 11.2701C18.462 10.9776 18.4605 10.5036 18.753 10.2096C19.7415 9.21588 19.7445 7.54338 18.759 6.55788C18.4657 6.26463 18.4657 5.79063 18.759 5.49738C19.0522 5.20413 19.5262 5.20413 19.8195 5.49738C21.3787 7.05663 21.3772 9.69963 19.8165 11.2671Z" fill="white"/>
</svg>
