<svg width="150" height="55" viewBox="0 0 150 55" fill="none" xmlns="http://www.w3.org/2000/svg">
<path d="M37.355 44.2241L47.7676 38.6528C49.1043 37.9375 49.9023 36.656 49.9023 35.2248C49.9023 33.7935 49.1043 32.512 47.7676 31.7967L37.355 26.2254C36.0172 25.5094 34.4208 25.5109 33.0841 26.2293C31.7524 26.9453 30.957 28.2254 30.957 29.6534V40.7961C30.957 42.2241 31.7524 43.5042 33.0841 44.2202C33.7536 44.5801 34.4883 44.7599 35.2234 44.7599C35.9554 44.7599 36.6875 44.5816 37.355 44.2241Z" fill="#000F93"/>
<path d="M25.0977 42.9413H7.8125C3.50456 42.9413 0 39.6835 0 35.6788V7.44605C0 3.44141 3.50456 0.183594 7.8125 0.183594H42.1875C46.4954 0.183594 50 3.44141 50 7.44605V25.3298C50 26.3327 49.1257 27.1455 48.0469 27.1455C46.9681 27.1455 46.0938 26.3327 46.0938 25.3298V7.44605C46.0938 5.44391 44.3413 3.81482 42.1875 3.81482H7.8125C5.65872 3.81482 3.90625 5.44391 3.90625 7.44605V35.6788C3.90625 37.681 5.65872 39.3101 7.8125 39.3101H25.0977C26.1765 39.3101 27.0508 40.1228 27.0508 41.1257C27.0508 42.1285 26.1765 42.9413 25.0977 42.9413ZM11.4258 33.8632C11.4258 32.8604 10.5515 32.0476 9.47266 32.0476C8.39386 32.0476 7.51953 32.8604 7.51953 33.8632C7.51953 34.8661 8.39386 35.6788 9.47266 35.6788C10.5515 35.6788 11.4258 34.8661 11.4258 33.8632ZM19.2383 33.8632C19.2383 32.8604 18.364 32.0476 17.2852 32.0476C16.2064 32.0476 15.332 32.8604 15.332 33.8632C15.332 34.8661 16.2064 35.6788 17.2852 35.6788C18.364 35.6788 19.2383 34.8661 19.2383 33.8632ZM27.0508 33.8632C27.0508 32.8604 26.1765 32.0476 25.0977 32.0476C24.0189 32.0476 23.1445 32.8604 23.1445 33.8632C23.1445 34.8661 24.0189 35.6788 25.0977 35.6788C26.1765 35.6788 27.0508 34.8661 27.0508 33.8632ZM11.4258 9.26166C11.4258 8.25882 10.5515 7.44605 9.47266 7.44605C8.39386 7.44605 7.51953 8.25882 7.51953 9.26166C7.51953 10.2645 8.39386 11.0773 9.47266 11.0773C10.5515 11.0773 11.4258 10.2645 11.4258 9.26166ZM19.2383 9.26166C19.2383 8.25882 18.364 7.44605 17.2852 7.44605C16.2064 7.44605 15.332 8.25882 15.332 9.26166C15.332 10.2645 16.2064 11.0773 17.2852 11.0773C18.364 11.0773 19.2383 10.2645 19.2383 9.26166ZM27.0508 9.26166C27.0508 8.25882 26.1765 7.44605 25.0977 7.44605C24.0189 7.44605 23.1445 8.25882 23.1445 9.26166C23.1445 10.2645 24.0189 11.0773 25.0977 11.0773C26.1765 11.0773 27.0508 10.2645 27.0508 9.26166ZM34.8633 9.26166C34.8633 8.25882 33.989 7.44605 32.9102 7.44605C31.8314 7.44605 30.957 8.25882 30.957 9.26166C30.957 10.2645 31.8314 11.0773 32.9102 11.0773C33.989 11.0773 34.8633 10.2645 34.8633 9.26166ZM42.6758 9.26166C42.6758 8.25882 41.8015 7.44605 40.7227 7.44605C39.6439 7.44605 38.7695 8.25882 38.7695 9.26166C38.7695 10.2645 39.6439 11.0773 40.7227 11.0773C41.8015 11.0773 42.6758 10.2645 42.6758 9.26166Z" fill="white"/>
<path d="M68.232 41H74.388V25.808L80.076 41H85.044L90.696 25.844V41H96.852V15.728H89.616L82.596 33.224L75.504 15.728H68.232V41ZM101.279 41H107.435V20.912H101.279V41ZM104.375 18.824C106.535 18.824 108.011 17.348 108.011 15.512C108.011 13.64 106.535 12.164 104.375 12.164C102.179 12.164 100.703 13.64 100.703 15.512C100.703 17.348 102.179 18.824 104.375 18.824ZM118.052 31.676C118.052 28.22 119.744 27.212 122.66 27.212H124.352V20.696C121.652 20.696 119.456 22.136 118.052 24.26V20.912H111.896V41H118.052V31.676ZM147.131 20.912H140.975V31.82C140.975 34.556 139.463 36.068 137.087 36.068C134.783 36.068 133.235 34.556 133.235 31.82V20.912H127.115V32.648C127.115 38.012 130.247 41.216 134.891 41.216C137.591 41.216 139.751 39.992 140.975 38.264V41H147.131V20.912Z" fill="white"/>
</svg>
